<svg xmlns="http://www.w3.org/2000/svg" width="69" height="24" viewBox="0 0 69 24" fill="none">
  <path d="M1.75 10.5C0.921573 10.5 0.25 11.1716 0.25 12C0.25 12.8284 0.921573 13.5 1.75 13.5L1.75 10.5ZM46.8107 13.0607C47.3964 12.4749 47.3964 11.5251 46.8107 10.9393L37.2647 1.3934C36.6789 0.807615 35.7292 0.807614 35.1434 1.3934C34.5576 1.97919 34.5576 2.92894 35.1434 3.51472L43.6287 12L35.1434 20.4853C34.5576 21.0711 34.5576 22.0208 35.1434 22.6066C35.7292 23.1924 36.6789 23.1924 37.2647 22.6066L46.8107 13.0607ZM1.75 13.5L45.75 13.5L45.75 10.5L1.75 10.5L1.75 13.5Z" fill="white"/>
  <path opacity="0.5" d="M46.75 2.5L56.25 12L46.75 21.5" stroke="white" stroke-width="3" stroke-linecap="round"/>
  <path opacity="0.2" d="M56.75 2.5L66.25 12L56.75 21.5" stroke="white" stroke-width="3" stroke-linecap="round"/>
</svg>