<svg width="160" height="96" viewBox="0 0 160 96" fill="none" xmlns="http://www.w3.org/2000/svg">
<circle cx="8.52475" cy="8.52475" r="8.52475" transform="matrix(4.37114e-08 1 1 -4.37114e-08 156.855 3.05176e-05)" fill="#EFEDFF"/>
<circle cx="8.52475" cy="8.52475" r="8.52475" transform="matrix(4.37114e-08 1 1 -4.37114e-08 129.576 6.81992)" fill="#EFEDFF"/>
<circle cx="8.52475" cy="8.52475" r="8.52475" transform="matrix(4.37114e-08 1 1 -4.37114e-08 102.297 17.0501)" fill="#EFEDFF"/>
<circle cx="8.52475" cy="8.52475" r="8.52475" transform="matrix(4.37114e-08 1 1 -4.37114e-08 75.0176 27.2796)" fill="#EFEDFF"/>
<circle cx="8.52475" cy="8.52475" r="8.52475" transform="matrix(4.37114e-08 1 1 -4.37114e-08 47.7388 40.9188)" fill="#EFEDFF"/>
<circle cx="8.52475" cy="8.52475" r="8.52475" transform="matrix(4.37114e-08 1 1 -4.37114e-08 23.8691 57.9688)" fill="#EFEDFF"/>
<circle cx="8.52475" cy="8.52475" r="8.52475" transform="matrix(4.37114e-08 1 1 -4.37114e-08 0 78.4276)" fill="#EFEDFF"/>
</svg>
