<svg xmlns="http://www.w3.org/2000/svg" width="36" height="24" viewBox="0 0 36 24" fill="none">
  <g clip-path="url(#clip0_5_5)">
    <path d="M7.77175 7.83915C7.3841 7.57266 6.87826 7.43909 6.25421 7.43909H3.83824C3.64693 7.43909 3.54124 7.53476 3.52116 7.72589L2.5397 13.8865C2.5295 13.947 2.54464 14.0023 2.58498 14.0527C2.62509 14.1031 2.67553 14.1282 2.73595 14.1282H3.88352C4.08479 14.1282 4.19542 14.0327 4.21573 13.8413L4.48749 12.1804C4.49741 12.0999 4.53281 12.0345 4.59323 11.9841C4.65359 11.9338 4.7291 11.9008 4.8197 11.8858C4.9103 11.8708 4.99573 11.8633 5.07641 11.8633C5.15686 11.8633 5.25244 11.8684 5.36335 11.8784C5.47398 11.8885 5.5445 11.8933 5.57473 11.8933C6.44039 11.8933 7.11987 11.6494 7.61321 11.1611C8.10632 10.6729 8.35315 9.99596 8.35315 9.13012C8.35315 8.53621 8.15921 8.10587 7.77175 7.83896V7.83915ZM6.52606 9.68899C6.47556 10.0414 6.34486 10.2728 6.13347 10.3836C5.92204 10.4945 5.62006 10.5496 5.22752 10.5496L4.72919 10.5647L4.98595 8.94901C5.00598 8.83838 5.07138 8.78299 5.18219 8.78299H5.46918C5.87164 8.78299 6.16375 8.84101 6.34495 8.95658C6.52606 9.07243 6.58647 9.31667 6.52606 9.68899Z" fill="#003087"/>
    <path d="M33.2673 7.43909H32.15C32.039 7.43909 31.9737 7.49447 31.9537 7.6052L30.9722 13.8867L30.957 13.9169C30.957 13.9675 30.9772 14.0151 31.0175 14.0604C31.0576 14.1056 31.1081 14.1283 31.1685 14.1283H32.1652C32.3562 14.1283 32.4619 14.0329 32.4823 13.8415L33.4638 7.66561V7.65061C33.4637 7.5097 33.3981 7.43923 33.2673 7.43923V7.43909Z" fill="#009CDE"/>
    <path d="M19.7681 9.87075C19.7681 9.82053 19.7479 9.77262 19.7078 9.72739C19.6674 9.68212 19.6221 9.65936 19.5719 9.65936H18.4092C18.2983 9.65936 18.2077 9.70995 18.1374 9.81033L16.5368 12.166L15.8725 9.90102C15.8219 9.74004 15.7112 9.65936 15.5402 9.65936H14.4076C14.3572 9.65936 14.3119 9.68207 14.2718 9.72739C14.2315 9.77262 14.2114 9.82058 14.2114 9.87075C14.2114 9.89106 14.3096 10.1879 14.5058 10.7617C14.7021 11.3355 14.9135 11.9546 15.14 12.6191C15.3666 13.2834 15.4847 13.6359 15.4949 13.6759C14.6694 14.8034 14.2568 15.4075 14.2568 15.4879C14.2568 15.6189 14.3221 15.6842 14.453 15.6842H15.6157C15.7264 15.6842 15.817 15.634 15.8875 15.5333L19.738 9.97635C19.758 9.95636 19.7681 9.92129 19.7681 9.8707V9.87075Z" fill="#003087"/>
    <path d="M30.5946 9.65884H29.4469C29.3059 9.65884 29.2206 9.82495 29.1904 10.1572C28.9284 9.7547 28.4505 9.5531 27.7558 9.5531C27.031 9.5531 26.4143 9.82495 25.9061 10.3685C25.3976 10.9122 25.1436 11.5515 25.1436 12.2863C25.1436 12.8803 25.3171 13.3534 25.6644 13.7056C26.0117 14.0582 26.4772 14.2341 27.0613 14.2341C27.3531 14.2341 27.6501 14.1736 27.9521 14.0529C28.2541 13.9321 28.4904 13.7711 28.6619 13.5697C28.6619 13.5798 28.6516 13.625 28.6317 13.7055C28.6114 13.7862 28.6014 13.8467 28.6014 13.8867C28.6014 14.048 28.6667 14.1283 28.7978 14.1283H29.8398C30.0307 14.1283 30.1416 14.0328 30.1717 13.8414L30.7909 9.90036C30.8008 9.83995 30.7858 9.78465 30.7456 9.73425C30.7052 9.68409 30.655 9.65884 30.5946 9.65884ZM28.6241 12.6335C28.3674 12.8852 28.0578 13.011 27.6954 13.011C27.4034 13.011 27.167 12.9306 26.9857 12.7695C26.8044 12.6087 26.7138 12.3872 26.7138 12.105C26.7138 11.7329 26.8397 11.4181 27.0914 11.1614C27.3428 10.9047 27.6552 10.7763 28.0276 10.7763C28.3092 10.7763 28.5433 10.8594 28.7297 11.0254C28.9158 11.1915 29.0092 11.4206 29.0092 11.7125C29.0091 12.0749 28.8807 12.382 28.6241 12.6335Z" fill="#009CDE"/>
    <path d="M13.4418 9.65884H12.2942C12.1531 9.65884 12.0677 9.82495 12.0375 10.1572C11.7657 9.7547 11.2875 9.5531 10.603 9.5531C9.87818 9.5531 9.26152 9.82495 8.75323 10.3685C8.2448 10.9122 7.99072 11.5515 7.99072 12.2863C7.99072 12.8803 8.1644 13.3534 8.51171 13.7056C8.85901 14.0582 9.32448 14.2341 9.90841 14.2341C10.1901 14.2341 10.4822 14.1736 10.7842 14.0529C11.0862 13.9321 11.3278 13.7711 11.509 13.5697C11.4686 13.6905 11.4486 13.7962 11.4486 13.8867C11.4486 14.048 11.514 14.1283 11.6449 14.1283H12.6867C12.8779 14.1283 12.9887 14.0328 13.019 13.8414L13.638 9.90036C13.6479 9.83995 13.6328 9.78465 13.5927 9.73425C13.5524 9.68409 13.5022 9.65884 13.4418 9.65884ZM11.4713 12.641C11.2145 12.888 10.8998 13.011 10.5276 13.011C10.2355 13.011 10.0014 12.9306 9.82538 12.7695C9.64912 12.6087 9.56111 12.3872 9.56111 12.105C9.56111 11.7329 9.68688 11.4181 9.93865 11.1614C10.1901 10.9047 10.5022 10.7763 10.8748 10.7763C11.1566 10.7763 11.3906 10.8594 11.577 11.0255C11.7631 11.1916 11.8563 11.4207 11.8563 11.7126C11.8563 12.085 11.728 12.3947 11.4713 12.641Z" fill="#003087"/>
    <path d="M24.9251 7.83915C24.5375 7.57266 24.0318 7.43909 23.4076 7.43909H21.0067C20.8053 7.43909 20.6945 7.53476 20.6745 7.72589L19.693 13.8865C19.6828 13.9471 19.6979 14.0024 19.7383 14.0527C19.7782 14.1031 19.8289 14.1282 19.8893 14.1282H21.1274C21.2482 14.1282 21.3287 14.0628 21.369 13.9319L21.6409 12.1804C21.6508 12.0999 21.6861 12.0345 21.7465 11.9841C21.807 11.9338 21.8824 11.9009 21.9731 11.8858C22.0636 11.8708 22.149 11.8633 22.2298 11.8633C22.3102 11.8633 22.4058 11.8684 22.5166 11.8784C22.6273 11.8885 22.698 11.8933 22.728 11.8933C23.5938 11.8933 24.2732 11.6494 24.7665 11.1611C25.2598 10.6729 25.5064 9.99596 25.5064 9.13012C25.5065 8.53626 25.3126 8.10592 24.9251 7.83901V7.83915ZM23.3774 10.3231C23.1559 10.4741 22.8237 10.5496 22.3808 10.5496L21.8976 10.5647L22.1543 8.94901C22.1743 8.83838 22.2397 8.78299 22.3506 8.78299H22.6223C22.8437 8.78299 23.0198 8.79306 23.1509 8.81313C23.2816 8.83344 23.4076 8.89616 23.5284 9.00186C23.6492 9.10759 23.7096 9.26115 23.7096 9.46247C23.7096 9.88524 23.5988 10.1721 23.3774 10.3231Z" fill="#009CDE"/>
  </g>
  <defs>
    <clipPath id="clip0_5_5">
      <rect width="36" height="24" fill="white"/>
    </clipPath>
  </defs>
</svg>